<svg xmlns="http://www.w3.org/2000/svg" width="256" height="256" viewBox="0 0 256 256">
  <defs>
    <linearGradient id="g" x1="0" y1="0" x2="1" y2="1">
      <stop offset="0%" stop-color="#0ea5e9"/>
      <stop offset="100%" stop-color="#0284c7"/>
    </linearGradient>
    <linearGradient id="g2" x1="0" y1="1" x2="1" y2="0">
      <stop offset="0%" stop-color="#f59e0b"/>
      <stop offset="100%" stop-color="#fbbf24"/>
    </linearGradient>
  </defs>
  <rect x="0" y="0" width="256" height="256" rx="28" fill="#0b1220"/>
  <g transform="translate(28,28)">
    <path d="M40 140c40-40 64-34 98-74 10-12 10-32-4-42-16-12-36-12-58 0C48 38 28 66 20 86" fill="none" stroke="url(#g)" stroke-width="24" stroke-linecap="round"/>
    <path d="M24 112c28 12 52 10 76 0 20-8 40-24 60-12 18 10 16 36-6 52-36 26-84 26-130-4" fill="none" stroke="url(#g2)" stroke-width="24" stroke-linecap="round"/>
  </g>
</svg>
